<?xml version="1.0" encoding="utf-8"?>
<!-- Generator: Adobe Illustrator 28.3.0, SVG Export Plug-In . SVG Version: 6.00 Build 0)  -->
<svg version="1.1" id="Layer_1" xmlns="http://www.w3.org/2000/svg" xmlns:xlink="http://www.w3.org/1999/xlink" x="0px" y="0px"
	 viewBox="0 0 471 471" style="enable-background:new 0 0 471 471;" xml:space="preserve">
<style type="text/css">
	.st0{fill:#F7F7C4;}
	.st1{fill:#E8E58E;}
</style>
<g>
	<path class="st0" d="M11.8,454.5c2.6-5,15.2-35.3,2.6-122.6c-8.4-58-11.5-139.9-12-163.9c-0.3-14.9,2-42.5,4.2-69.1
		c1.8-22,3.6-42.7,4-56.9c0.4-15.6,14.9-30.9,16.5-32.5l434.7,6c-2.4,2.9-9.8,13.2-10.2,28.5c-1.3,49.7,1.9,103.9,5.3,161.3
		c2.1,36.2,4.4,73.7,5.5,111.7c2.8,92.1-8.6,133.3-9.9,137.5H11.8z"/>
	<path class="st1" d="M27.4,10l433.5,6c-2.9,3.7-9.3,13.6-9.7,28c-1.3,49.7,1.9,104,5.3,161.4c2.1,36.2,4.4,73.7,5.5,111.7
		c2.7,89.8-8.1,131.2-9.7,137H12.7c1.4-2.9,4.2-10.1,6.1-24c2.3-17.1,3.5-47.9-3.8-98.2C6.6,273.9,3.4,192.1,3,168
		c-0.3-14.9,2-42.4,4.2-69c1.8-22,3.6-42.7,4-56.9C11.6,27,25.2,12.3,27.4,10 M27,9c0,0-16.3,16.2-16.8,33C9.3,73.8,1.5,141.1,2,168
		c0.5,26.9,3.8,106.9,12,164c14,97-3,123-3,123h442c0,0,13-40,10-138s-13-191.9-10.8-273c0.5-18,10.8-29,10.8-29L27,9L27,9z"/>
</g>
<g>
	<path d="M185.4,238c1.4-5.6,2.8-12.4,4.2-20.6c1.4-8.1,2.1-13.8,2.1-17.1c0-1.7,0.1-2.9,0.4-3.5c0.3-0.6,0.8-1.1,1.7-1.6
		c0.9-0.4,1.8-0.7,2.8-0.7c0.7,0,1.2,0.5,1.7,1.4c0.5,0.9,0.7,2.1,0.7,3.3c0,1-0.4,2.8-1.1,5.3c-1.5,5.8-2.9,12.7-4.4,20.7
		c-1.4,8-2.1,12.6-2.1,13.8c0,2.5,0,4.1,0.1,4.7c0.1,1.2-0.3,2.2-1.2,2.9s-2,1.1-3.5,1.1c-0.8,0-1.4-0.1-1.7-0.3
		c-0.3-0.2-0.9-0.8-1.8-1.9c-0.9-1-1.5-2-1.7-3c-0.2-0.9-0.9-2.1-2.1-3.5c-6.8-8.6-12.8-18-18.2-28.3c-1.5,5.4-2.9,12.9-4.3,22.5
		l-0.9,5.9c-0.1,0.6-0.1,1.8-0.1,3.5c0,1.8-0.1,3-0.3,3.6c-0.2,0.6-0.7,1.3-1.4,2.1s-1.4,1.2-2.1,1.2c-1.6,0-2.5-0.7-2.8-2
		s-0.4-2.4-0.4-3.1c0-1.7,0.5-4.5,1.5-8.4c1-3.8,2.3-9.8,3.8-17.8c1.5-8,2.3-13.1,2.3-15.2l0-1.9c0-0.7,0.2-1.3,0.4-1.8
		s0.7-1,1.4-1.4c0.7-0.4,1.4-0.6,2.1-0.6c0.6,0,1.2,0.1,1.8,0.4c0.5,0.3,0.9,0.7,1.2,1.2c0.2,0.6,0.5,1.6,0.8,3.1
		c0.9,4.5,3.8,10.6,8.7,18.2C177.7,228.2,181.9,234,185.4,238z"/>
	<path d="M216.1,248.8c-3.2,0-5.9-1.2-7.9-3.7c-2.1-2.4-3.1-5.4-3.1-9c0-6,2-12,6.1-17.9c4.1-5.9,8.9-8.8,14.6-8.8
		c3.7,0,6.8,1.4,9.1,4.3c2.3,2.9,3.5,6.3,3.5,10.3c0,6.1-2.4,11.7-7.2,16.9S221.3,248.8,216.1,248.8z M211.2,235.2
		c0,2.4,0.5,4.3,1.5,5.8c1,1.5,2.3,2.2,4,2.2c3.5,0,7-1.9,10.5-5.7s5.3-8.1,5.3-12.8c0-2.9-0.7-5.2-2-7c-1.3-1.8-3.2-2.7-5.4-2.7
		c-3.8,0-7,2.3-9.7,6.9C212.5,226.5,211.2,231,211.2,235.2z"/>
	<path d="M260.8,211.5c2.4-0.2,4.7-0.4,6.8-0.7c2.1-0.2,3.9-0.4,5.3-0.4c1.8,0,2.9,0.2,3.4,0.5c0.5,0.3,0.7,0.9,0.7,1.7
		c0,1.9-1.3,2.9-4,3.1c-3.4,0.2-6.5,0.5-9.4,0.9c-2.9,0.4-4.4,0.7-4.6,0.9c-0.2,0.2-0.9,3-2.1,8.4c-1.2,5.3-1.8,8.8-1.8,10.4
		c0,2.6,0.3,4.3,1,5.2c0.7,0.9,1.7,1.3,3.1,1.3c2,0,4.8-1.5,8.4-4.5c1.4-1.2,2.4-1.9,3.2-1.9c1,0,1.5,0.5,1.5,1.6
		c0,1.7-1.6,3.9-4.9,6.6c-3.2,2.7-6.6,4-10,4c-5.7,0-8.5-3.3-8.5-10c0-2.4,0.6-6.2,1.8-11.2c1.1-5,1.7-8.1,1.7-9.1
		c0-0.4-0.3-0.5-0.8-0.5l-3.7,0.3c-3,0-4.5-1.2-4.5-3.6c0-1.4,0.7-2,2.1-2h7.2c0.5,0,0.9-0.2,1.3-0.7c0.4-0.4,0.9-1.9,1.7-4.5
		c0.7-2.5,1.4-5.1,1.9-7.5c0.6-2.5,1.7-3.7,3.3-3.7c1,0,1.8,0.4,2.4,1.1s0.8,1.4,0.8,2c0,0.3-0.4,2-1.3,5L260.8,211.5z"/>
	<path d="M310.4,235.1c0,2.4-2.1,5.3-6.3,8.6c-4.2,3.4-8.6,5.1-13.1,5.1c-3.8,0-6.7-1.1-8.7-3.3c-2.1-2.2-3.1-5.3-3.1-9.3
		c0-6.7,2.3-13.1,6.8-19.1c4.5-6,9.5-9.1,14.8-9.1c1.8,0,3.2,0.6,4.3,1.7c1.1,1.1,1.7,2.5,1.7,4.1c0,3.6-1.8,7.1-5.3,10.4
		c-3.5,3.3-8.3,6.6-14.2,9.7c-1.2,0.6-1.8,1.5-1.8,2.5c0,1.9,0.6,3.5,1.7,4.7s2.8,1.8,5,1.8c5,0,10.2-2.8,15.4-8.4
		c0.8-0.8,1.4-1.2,1.8-1.2C310,233.3,310.4,233.9,310.4,235.1z M285.9,229.6c9.9-5.9,14.9-10.7,14.9-14.2c0-1.4-0.6-2.1-1.9-2.1
		c-2.2,0-4.6,1.6-7.3,4.7S287,225,285.9,229.6z"/>
	<path d="M335.4,238.9c0-1.5-1.9-3.3-5.6-5.2c-4.8-2.4-8-4.4-9.7-5.9c-1.7-1.5-2.5-3.1-2.5-4.9c0-4.7,2.3-8.5,7-11.6
		c4.7-3.1,8.5-4.6,11.4-4.6c1.9,0,3.3,0.3,4.1,1c0.9,0.7,1.3,1.8,1.3,3.4c0,0.7-0.3,1.3-0.9,1.9c-0.6,0.5-1.1,0.8-1.5,0.8
		c-0.3,0-0.8-0.2-1.5-0.5c-0.8-0.3-1.2-0.5-1.5-0.5c-1.2,0-3.6,0.9-7.1,2.6c-3.6,1.7-5.4,3.6-5.4,5.8c0,1.3,0.6,2.5,1.9,3.6
		c1.3,1.1,3.5,2.4,6.8,3.9c2.6,1.3,4.8,2.6,6.3,4.1s2.4,3.1,2.4,5.1c0,3.6-2.5,6.4-7.4,8.4c-4.9,2-9.7,3-14.2,3
		c-3.8,0-5.7-1.3-5.7-3.9c0-0.9,0.4-1.5,1.3-2c0.9-0.4,1.7-0.6,2.6-0.6c0.4,0,1,0.1,2,0.4c1,0.2,1.6,0.4,1.9,0.4
		c2.6,0,5.4-0.4,8.4-1.3C332.8,241.3,334.7,240.2,335.4,238.9z"/>
</g>
</svg>
