<?xml version="1.0" encoding="utf-8"?>
<!-- Generator: Adobe Illustrator 28.3.0, SVG Export Plug-In . SVG Version: 6.00 Build 0)  -->
<svg version="1.1" id="Note1" xmlns="http://www.w3.org/2000/svg" xmlns:xlink="http://www.w3.org/1999/xlink" x="0px" y="0px"
	 viewBox="0 0 260 260" style="enable-background:new 0 0 260 260;" xml:space="preserve">
<style type="text/css">
	.st0{fill:#FFFFFF;}
	.st1{opacity:0;fill:#FFFFFF;}
	.st2{fill:#2272AF;}
</style>
<path id="Background" class="st0" d="M214.2,260h-169C20.2,260,0,239.8,0,214.8v-169C0,20.8,20.2,0.6,45.2,0.6h169
	c24.9,0,45.2,20.2,45.2,45.2v169C259.4,239.8,239.2,260,214.2,260z"/>
<g>
	<g>
		<path class="st1" d="M177.2,49.6L67,55.4c-2.5,0.1-4.7,1-6.6,2.3l-17.6-1.2c-3.3-0.2-5.8-3.1-5.6-6.4l0.4-6
			c0.2-3.3,3.1-5.8,6.4-5.6L172.7,47C174.6,47.1,176.2,48.1,177.2,49.6z"/>
		<path class="st1" d="M56.4,94.5l-16-1c-3.3-0.2-5.8-3.1-5.6-6.4c0.2-3.3,3.1-5.8,6.4-5.6l14.6,1L56.4,94.5z"/>
		<path class="st1" d="M56.7,100.6l0.6,12.1l-18.1-1.2c-3.3-0.2-5.8-3.1-5.6-6.4c0-0.2,0-0.4,0.1-0.5c0-0.1,0-0.1,0-0.2
			c0-0.4,0.1-0.7,0.3-1c0.1-0.2,0.1-0.3,0.2-0.5c0.2-0.3,0.3-0.6,0.6-0.9c0.1-0.1,0.2-0.3,0.3-0.4c0.1-0.1,0.1-0.1,0.2-0.2
			c0,0,0,0,0.1-0.1c0.1-0.1,0.2-0.2,0.4-0.3c0.1-0.1,0.2-0.2,0.4-0.3c0,0,0,0,0,0c0,0,0,0,0,0c0.1-0.1,0.2-0.1,0.2-0.2
			c0.1-0.1,0.3-0.2,0.5-0.3c0.2-0.1,0.3-0.2,0.5-0.2c0,0,0.1,0,0.1,0c0.2-0.1,0.3-0.1,0.5-0.2c0,0,0,0,0.1,0c0.1,0,0.3-0.1,0.4-0.1
			c0,0,0.1,0,0.2,0c0.2,0,0.3-0.1,0.5-0.1c0.2,0,0.4,0,0.6,0c0.1,0,0.3,0,0.4,0L56.7,100.6z"/>
		<path class="st1" d="M57.6,118.7l0.6,12.1L38,129.4c-3.3-0.2-5.8-3.1-5.6-6.4c0.2-3.3,3.1-5.8,6.4-5.6L57.6,118.7z"/>
		<path class="st1" d="M58.6,136.8l0.6,12.1l-22.4-1.5c-3.3-0.2-5.8-3.1-5.6-6.4c0-0.2,0-0.3,0.1-0.5c0-0.1,0-0.1,0-0.2
			c0-0.2,0-0.3,0.1-0.5c0,0,0-0.1,0-0.1c0,0,0-0.1,0-0.1c0-0.1,0.1-0.2,0.1-0.4c0.1-0.3,0.3-0.7,0.5-1c0.1-0.2,0.2-0.3,0.3-0.5
			c0-0.1,0.1-0.1,0.2-0.2c0.1-0.1,0.2-0.2,0.3-0.3c0,0,0-0.1,0.1-0.1c0.1-0.2,0.3-0.3,0.5-0.4c0.1,0,0.1-0.1,0.2-0.2
			c0.1-0.1,0.2-0.2,0.4-0.2c0.1-0.1,0.3-0.2,0.4-0.2c0.2-0.1,0.4-0.2,0.6-0.3c0.1-0.1,0.3-0.1,0.5-0.2c0.2-0.1,0.4-0.1,0.6-0.2
			c0.2,0,0.3-0.1,0.5-0.1c0.2,0,0.4,0,0.6,0c0.1,0,0.3,0,0.4,0L58.6,136.8z"/>
		<path class="st1" d="M59.5,154.9l0.6,12.1l-24.5-1.6c-3.3-0.2-5.8-3.1-5.6-6.4c0.2-3.2,2.8-5.6,6-5.6c0.1,0,0.3,0,0.4,0
			L59.5,154.9z"/>
		<path id="Note" class="st2" d="M188.7,36L40.5,26.4c-6.5-0.4-12,4.5-12.4,10.9l-9.7,148.3c-0.4,6.5,4.5,12,10.9,12.4l32.7,2.1
			l-1.8-33.2l-24.5-1.6c-3.3-0.2-5.8-3.1-5.6-6.4c0.2-3.2,2.8-5.6,6-5.6c0.1,0,0.3,0,0.4,0l23.1,1.5l-0.3-6l-22.4-1.5
			c-3.3-0.2-5.8-3.1-5.6-6.4c0-0.2,0-0.3,0.1-0.5c0-0.1,0-0.1,0-0.2c0-0.2,0-0.3,0.1-0.5c0,0,0-0.1,0-0.1c0,0,0-0.1,0-0.1
			c0-0.1,0.1-0.2,0.1-0.4c0.1-0.3,0.3-0.7,0.5-1c0.1-0.2,0.2-0.3,0.3-0.5c0-0.1,0.1-0.1,0.2-0.2c0.1-0.1,0.2-0.2,0.3-0.3
			c0,0,0-0.1,0.1-0.1c0.1-0.2,0.3-0.3,0.5-0.4c0.1,0,0.1-0.1,0.2-0.2c0.1-0.1,0.2-0.2,0.4-0.2c0.1-0.1,0.3-0.2,0.4-0.2
			c0.2-0.1,0.4-0.2,0.6-0.3c0.1-0.1,0.3-0.1,0.5-0.2c0.2-0.1,0.4-0.1,0.6-0.2c0.2,0,0.3-0.1,0.5-0.1c0.2,0,0.4,0,0.6,0
			c0.1,0,0.3,0,0.4,0l20.9,1.4l-0.3-6L38,129.4c-3.3-0.2-5.8-3.1-5.6-6.4c0.2-3.3,3.1-5.8,6.4-5.6l18.8,1.2l-0.3-6l-18.1-1.2
			c-3.3-0.2-5.8-3.1-5.6-6.4c0-0.2,0-0.4,0.1-0.5c0-0.1,0-0.1,0-0.2c0-0.4,0.1-0.7,0.3-1c0.1-0.2,0.1-0.3,0.2-0.5
			c0.2-0.3,0.3-0.6,0.6-0.9c0.1-0.1,0.2-0.3,0.3-0.4c0.1-0.1,0.1-0.1,0.2-0.2c0,0,0,0,0.1-0.1c0.1-0.1,0.2-0.2,0.4-0.3
			c0.1-0.1,0.2-0.2,0.4-0.3c0,0,0,0,0,0c0,0,0,0,0,0c0.1-0.1,0.2-0.1,0.2-0.2c0.1-0.1,0.3-0.2,0.5-0.3c0.2-0.1,0.3-0.2,0.5-0.2
			c0,0,0.1,0,0.1,0c0.2-0.1,0.3-0.1,0.5-0.2c0,0,0,0,0.1,0c0.1,0,0.3-0.1,0.4-0.1c0,0,0.1,0,0.2,0c0.2,0,0.3-0.1,0.5-0.1
			c0.2,0,0.4,0,0.6,0c0.1,0,0.3,0,0.4,0l16.7,1.1l-0.3-6l-16-1c-3.3-0.2-5.8-3.1-5.6-6.4c0.2-3.3,3.1-5.8,6.4-5.6l14.6,1L55,68.7
			c-0.2-4.5,1.9-8.6,5.3-11l-17.6-1.2c-3.3-0.2-5.8-3.1-5.6-6.4l0.4-6c0.2-3.3,3.1-5.8,6.4-5.6L172.7,47c1.9,0.1,3.5,1.1,4.5,2.6
			l22.4-1.2C200,42,195.2,36.5,188.7,36z"/>
	</g>
	<g>
		<path id="Note_00000171717290679468965500000010584449218672726956_" class="st2" d="M221.5,54.1L73.1,61.9
			c-6.5,0.3-11.4,5.9-11.1,12.3l7.8,148.4c0.3,6.5,5.9,11.4,12.3,11.1l148.4-7.8c6.5-0.3,11.4-5.9,11.1-12.3l-7.8-148.4
			C233.5,58.7,228,53.7,221.5,54.1z M74.7,122.9c-0.2-3.3,2.4-6.1,5.7-6.3l91.9-4.8c3.3-0.2,6.1,2.4,6.3,5.7v0
			c0.2,3.3-2.4,6.1-5.7,6.3L81,128.6C77.7,128.7,74.8,126.2,74.7,122.9L74.7,122.9z M76.5,158.8c-0.2-3.3,2.4-6.1,5.7-6.3l91.9-4.8
			c3.3-0.2,6.1,2.4,6.3,5.7v0c0.2,3.3-2.4,6.1-5.7,6.3l-91.9,4.8C79.5,164.7,76.7,162.1,76.5,158.8L76.5,158.8z M182.3,189.3
			c0.2,3.3-2.4,6.1-5.7,6.3l-91.9,4.8c-3.3,0.2-6.1-2.4-6.3-5.7l0,0c-0.2-3.3,2.4-6.1,5.7-6.3l91.9-4.8
			C179.3,183.5,182.1,186,182.3,189.3L182.3,189.3z M202.2,170.2c0.2,3.3-2.4,6.1-5.7,6.3l-112.7,5.9c-3.3,0.2-6.1-2.4-6.3-5.7v0
			c-0.2-3.3,2.4-6.1,5.7-6.3l112.7-5.9C199.2,164.4,202,166.9,202.2,170.2L202.2,170.2z M216.4,133.4c0.2,3.3-2.4,6.1-5.7,6.3
			l-128.8,6.8c-3.3,0.2-6.1-2.4-6.3-5.7l0,0c-0.2-3.3,2.4-6.1,5.7-6.3l128.8-6.8C213.4,127.6,216.2,130.1,216.4,133.4L216.4,133.4z
			 M213.5,78.5c0.2,3.3-2.4,6.1-5.7,6.3L79,91.6c-3.3,0.2-6.1-2.4-6.3-5.7l-0.3-6c-0.2-3.3,2.4-6.1,5.7-6.3l128.8-6.8
			c3.3-0.2,6.1,2.4,6.3,5.7L213.5,78.5z"/>
		<path class="st1" d="M207.8,84.8L79,91.6c-3.3,0.2-6.1-2.4-6.3-5.7l-0.3-6c-0.2-3.3,2.4-6.1,5.7-6.3l128.8-6.8
			c3.3-0.2,6.1,2.4,6.3,5.7l0.3,6C213.7,81.8,211.1,84.6,207.8,84.8z"/>
		<path class="st1" d="M172.8,123.7L81,128.6c-3.3,0.2-6.1-2.4-6.3-5.7v0c-0.2-3.3,2.4-6.1,5.7-6.3l91.9-4.8
			c3.3-0.2,6.1,2.4,6.3,5.7v0C178.7,120.7,176.1,123.5,172.8,123.7z"/>
		<path class="st1" d="M210.7,139.7l-128.8,6.8c-3.3,0.2-6.1-2.4-6.3-5.7l0,0c-0.2-3.3,2.4-6.1,5.7-6.3l128.8-6.8
			c3.3-0.2,6.1,2.4,6.3,5.7v0C216.6,136.7,214,139.6,210.7,139.7z"/>
		<path class="st1" d="M174.7,159.7l-91.9,4.8c-3.3,0.2-6.1-2.4-6.3-5.7v0c-0.2-3.3,2.4-6.1,5.7-6.3l91.9-4.8
			c3.3-0.2,6.1,2.4,6.3,5.7v0C180.6,156.7,178,159.5,174.7,159.7z"/>
		<path class="st1" d="M196.5,176.5l-112.7,5.9c-3.3,0.2-6.1-2.4-6.3-5.7v0c-0.2-3.3,2.4-6.1,5.7-6.3l112.7-5.9
			c3.3-0.2,6.1,2.4,6.3,5.7v0C202.3,173.5,199.8,176.4,196.5,176.5z"/>
		<path class="st1" d="M176.6,195.6l-91.9,4.8c-3.3,0.2-6.1-2.4-6.3-5.7l0,0c-0.2-3.3,2.4-6.1,5.7-6.3l91.9-4.8
			c3.3-0.2,6.1,2.4,6.3,5.7v0C182.5,192.6,179.9,195.4,176.6,195.6z"/>
	</g>
</g>
</svg>
